<svg width="25" height="24" viewBox="0 0 25 24" fill="none" xmlns="http://www.w3.org/2000/svg">
<path d="M24.0015 4.25375C23.1191 4.6346 22.1712 4.89193 21.1745 5.00825C22.2026 4.40896 22.9714 3.46576 23.3375 2.35462C22.3716 2.91354 21.3143 3.30696 20.2117 3.51777C19.4696 2.74666 18.487 2.23556 17.4164 2.06381C16.3458 1.89206 15.2472 2.06928 14.2911 2.56796C13.335 3.06663 12.5749 3.85885 12.1288 4.82163C11.6827 5.78441 11.5756 6.86388 11.8241 7.89244C9.86619 7.79671 7.95054 7.30114 6.2015 6.4379C4.45247 5.57465 2.90914 4.36302 1.67167 2.88164C1.24933 3.59188 1.00676 4.41535 1.00733 5.29234C1.00737 6.08184 1.20751 6.85924 1.59001 7.55557C1.9725 8.25191 2.52552 8.84565 3.19999 9.2841C2.41809 9.25988 1.65333 9.05413 0.969354 8.684L0.969394 8.74576C0.970031 9.85306 1.36404 10.9263 2.08456 11.7833C2.80508 12.6404 3.80774 13.2284 4.9224 13.4478C4.1972 13.6389 3.43678 13.6671 2.69855 13.5301C3.01362 14.4829 3.62668 15.316 4.45191 15.9129C5.27714 16.5098 6.27323 16.8406 7.30072 16.859C5.55738 18.1924 3.40376 18.9157 1.18631 18.9125C0.793513 18.9126 0.401033 18.8903 0.0108947 18.8456C2.26264 20.2549 4.88326 21.0029 7.55919 21C16.6176 21 21.5649 13.6938 21.5608 7.35719C21.5606 7.15132 21.5552 6.9434 21.5456 6.73753C22.5084 6.05917 23.3393 5.21915 23.9993 4.25683L24.0015 4.25375Z" fill="white"/>
</svg>
