<svg width="50" height="50" viewBox="0 0 50 50" fill="none" xmlns="http://www.w3.org/2000/svg">
<path d="M44.8812 14.5719C44.9116 15.024 44.9116 15.476 44.9116 15.9322C44.9116 29.8333 34.5927 45.8654 15.7242 45.8654V45.857C10.1503 45.8654 4.69226 44.228 0 41.1407C0.810481 41.2407 1.62503 41.2907 2.4416 41.2928C7.06074 41.297 11.5478 39.7075 15.1818 36.7806C10.7922 36.6952 6.94292 33.76 5.59821 29.4749C7.13589 29.7791 8.72029 29.7166 10.2295 29.2937C5.44384 28.3021 2.00081 23.9899 2.00081 18.982C2.00081 18.9362 2.00081 18.8924 2.00081 18.8487C3.42677 19.6632 5.02336 20.1152 6.65651 20.1652C2.1491 17.0759 0.759699 10.9263 3.48162 6.11837C8.68982 12.6908 16.3742 16.6863 24.6232 17.1092C23.7965 13.4553 24.9259 9.62644 27.5909 7.05788C31.7225 3.07485 38.2206 3.279 42.1044 7.5141C44.4018 7.04955 46.6037 6.18503 48.6187 4.96012C47.8529 7.39536 46.2503 9.46395 44.1093 10.7784C46.1426 10.5326 48.1292 9.97433 50 9.12231C48.6228 11.2388 46.8881 13.0824 44.8812 14.5719Z" fill="#1D9BF0"/>
</svg>
