<svg width="30" height="30" viewBox="0 0 30 30" fill="none" xmlns="http://www.w3.org/2000/svg">
<path d="M15.0186 28.125C16.3963 28.125 17.5235 26.9712 17.5235 25.5609H12.5138C12.5138 26.2409 12.7777 26.8931 13.2474 27.374C13.7172 27.8549 14.3543 28.125 15.0186 28.125ZM22.5332 20.4327V14.0224C22.5332 10.0865 20.4792 6.79167 16.8973 5.91987V5.04808C16.8973 3.98397 16.0582 3.125 15.0186 3.125C13.9791 3.125 13.14 3.98397 13.14 5.04808V5.91987C9.54551 6.79167 7.50404 10.0737 7.50404 14.0224V20.4327L5.88841 22.0865C5.09938 22.8942 5.65045 24.2788 6.76511 24.2788H23.2596C24.3743 24.2788 24.9379 22.8942 24.1489 22.0865L22.5332 20.4327Z" fill="#8D8B95"/>
</svg>
