<svg width="30" height="30" viewBox="0 0 30 30" fill="none" xmlns="http://www.w3.org/2000/svg">
<path d="M15.6754 3.24229C15.4823 3.08526 15.2446 3 15 3C14.7554 3 14.5177 3.08526 14.3246 3.24229L5.2738 10.602C4.87688 10.9248 4.55577 11.3382 4.335 11.8105C4.11424 12.2829 3.99965 12.8017 4 13.3274V23.7001C4 24.3101 4.23179 24.8951 4.64437 25.3264C5.05695 25.7577 5.61652 26 6.2 26H10.6C11.1835 26 11.7431 25.7577 12.1556 25.3264C12.5682 24.8951 12.8 24.3101 12.8 23.7001V16.8003H17.2V23.7001C17.2 24.3101 17.4318 24.8951 17.8444 25.3264C18.2569 25.7577 18.8165 26 19.4 26H23.8C24.3835 26 24.9431 25.7577 25.3556 25.3264C25.7682 24.8951 26 24.3101 26 23.7001V13.3274C26.0001 12.8015 25.8852 12.2826 25.664 11.8102C25.4429 11.3378 25.1213 10.9246 24.724 10.602L15.6754 3.24229Z" fill="#8D8B95"/>
</svg>
