<svg width="24" height="24" viewBox="0 0 24 24" fill="none" xmlns="http://www.w3.org/2000/svg">
<path d="M12.231 10.2832C12.2269 11.6448 12.231 13.0107 12.2352 14.3723C14.4703 14.4482 16.7096 14.4145 18.9448 14.4482C17.9592 19.5196 11.2165 21.1637 7.6493 17.8502C3.97898 14.9457 4.15218 8.57584 7.96685 5.87784C10.6351 3.70257 14.425 4.23796 17.0932 6.12235C18.1407 5.13167 19.1222 4.06933 20.0666 2.97327C17.8479 1.16476 15.126 -0.125223 12.231 0.0096771C6.1853 -0.196889 0.630318 5.21598 0.531343 11.4003C0.143691 16.4549 3.39337 21.4082 7.97922 23.1957C12.5486 24.9957 18.4087 23.769 21.3285 19.5702C23.2544 16.9186 23.6709 13.5039 23.4441 10.2958C19.7036 10.2663 15.9673 10.2705 12.231 10.2832Z" fill="white"/>
</svg>
