<svg width="40" height="40" viewBox="0 0 40 40" fill="none" xmlns="http://www.w3.org/2000/svg">
<g clip-path="url(#clip0_3650_4192)">
<path d="M36.6667 10H28.3333V23.6333C27.8167 23.45 27.25 23.3333 26.6667 23.3333C23.9 23.3333 21.6667 25.5667 21.6667 28.3333C21.6667 31.1 23.9 33.3333 26.6667 33.3333C29.4333 33.3333 31.6667 31.1 31.6667 28.3333V13.3333H36.6667V10ZM25 10H5V13.3333H25V10ZM25 16.6667H5V20H25V16.6667ZM18.3333 23.3333H5V26.6667H18.3333V23.3333ZM25 28.3333C25 27.4167 25.75 26.6667 26.6667 26.6667C27.5833 26.6667 28.3333 27.4167 28.3333 28.3333C28.3333 29.25 27.5833 30 26.6667 30C25.75 30 25 29.25 25 28.3333Z" fill="#75737D"/>
</g>
<defs>
<clipPath id="clip0_3650_4192">
<rect width="40" height="40" fill="white"/>
</clipPath>
</defs>
</svg>
