<svg width="30" height="30" viewBox="0 0 30 30" fill="none" xmlns="http://www.w3.org/2000/svg">
<path d="M15.0184 28.125C16.3961 28.125 17.5233 26.9712 17.5233 25.5609H12.5135C12.5135 26.2409 12.7774 26.8931 13.2472 27.374C13.7169 27.8549 14.3541 28.125 15.0184 28.125ZM22.533 20.4327V14.0224C22.533 10.0865 20.479 6.79167 16.897 5.91987V5.04808C16.897 3.98397 16.0579 3.125 15.0184 3.125C13.9789 3.125 13.1397 3.98397 13.1397 5.04808V5.91987C9.54526 6.79167 7.5038 10.0737 7.5038 14.0224V20.4327L5.88816 22.0865C5.09913 22.8942 5.6502 24.2788 6.76487 24.2788H23.2594C24.3741 24.2788 24.9376 22.8942 24.1486 22.0865L22.533 20.4327Z" fill="#8165EA"/>
</svg>
