<svg width="51" height="50" viewBox="0 0 51 50" fill="none" xmlns="http://www.w3.org/2000/svg">
<path fill-rule="evenodd" clip-rule="evenodd" d="M38.7786 19.5967C38.7485 19.9277 38.7339 20.174 38.7078 20.7179L38.6942 21.0013L38.9305 21.1583C39.1976 21.3357 39.575 21.4442 40.0397 21.4626L40.063 21.4635L40.0863 21.4622C40.8043 21.4235 41.6195 21.1926 42.4731 20.7835C42.6915 20.6744 42.9522 20.6283 43.2282 20.6283C43.53 20.6283 43.8373 20.6867 44.0908 20.7935L44.106 20.7998L44.1215 20.8052C44.8752 21.0658 45.3234 21.5781 45.3352 22.1158C45.3477 22.8205 44.6307 23.5126 43.0784 24.1274C42.9034 24.2004 42.6861 24.2755 42.3806 24.371C41.5866 24.6214 41.1419 24.7831 40.6634 25.0262C39.956 25.3854 39.4602 25.814 39.2255 26.37C38.9457 27 39.0334 27.7496 39.4399 28.5932L39.4778 28.6848C39.513 28.7701 39.5856 28.9296 39.678 29.1181C39.8161 29.3995 39.9806 29.7098 40.1711 30.0412C40.6988 30.9593 41.3369 31.8875 42.0889 32.7744C44.2194 35.2875 46.8575 37.0182 50.0304 37.5405C50.3078 37.5852 50.5113 37.8336 50.4995 38.1125C50.4845 38.2388 50.4584 38.3465 50.4218 38.429C49.9863 39.4261 47.8921 40.2789 44.0892 40.8638L43.883 40.8955L43.7605 41.0644C43.7566 41.0698 43.7566 41.0698 43.7528 41.0752C43.6249 41.2578 43.5347 41.5373 43.4277 41.9805C43.3937 42.1217 43.3692 42.2311 43.3192 42.4615C43.1553 43.1825 43.1296 43.2896 43.0382 43.6037C42.9308 43.9686 42.717 44.1295 42.3423 44.1295H42.2743C41.9794 44.1295 41.6205 44.09 41.2205 44.0042C40.2021 43.8007 39.3898 43.7035 38.4064 43.7035C37.7932 43.7035 37.1434 43.7634 36.3881 43.8797C35.7188 43.9957 35.0846 44.2418 34.3963 44.628C33.8785 44.9186 33.4658 45.1952 32.5295 45.8569C31.1632 46.827 30.5013 47.2503 29.5983 47.6687C28.4068 48.2207 27.1878 48.5085 25.8153 48.5085C25.7721 48.5085 25.7286 48.5064 25.6486 48.501C25.5293 48.493 25.4983 48.4913 25.4402 48.4913H25.3903L25.3413 48.5012C25.3233 48.5048 25.2979 48.5071 25.2586 48.508C25.2399 48.5084 25.2235 48.5085 25.1846 48.5085C23.9577 48.5085 22.8498 48.2748 21.7751 47.8271C20.9136 47.4683 20.139 47.0123 19.0962 46.2934C18.9268 46.1766 18.8837 46.1465 18.469 45.8558C16.6524 44.5545 15.8174 44.0859 14.62 43.8811C13.9744 43.7622 13.2844 43.7035 12.5936 43.7035C11.6171 43.7035 10.8142 43.8091 9.78389 44.0205L9.77223 44.023C9.30987 44.1295 8.97734 44.1807 8.72573 44.1807C8.27133 44.1807 8.0663 43.9959 7.96181 43.6376C7.91062 43.4618 7.86304 43.2763 7.81111 43.0544C7.78019 42.9222 7.6773 42.4631 7.6798 42.474C7.63076 42.2483 7.60631 42.1389 7.57222 41.9977C7.46296 41.545 7.37172 41.264 7.23871 41.0811L7.11614 40.9125L6.91011 40.8809C3.09975 40.297 1.01506 39.4465 0.579441 38.4489C0.541715 38.3637 0.515561 38.2557 0.500482 38.1297C0.488758 37.8508 0.692215 37.6024 0.967649 37.5579C3.95554 37.0649 6.47527 35.4951 8.55138 33.1947C9.40611 32.2476 10.1307 31.2351 10.7318 30.216C10.9476 29.8501 11.1339 29.5057 11.2923 29.1888C11.3504 29.0726 11.4015 28.9665 11.4464 28.8698C11.4757 28.8068 11.4889 28.7774 11.517 28.7143L11.5601 28.6173V28.6073C11.9489 27.7645 12.0363 27.0199 11.7777 26.3947C11.5432 25.8342 11.0465 25.4039 10.3365 25.0433C9.85817 24.8004 9.41554 24.6393 8.62074 24.3882C8.25245 24.2654 8.09185 24.21 7.91686 24.1428C6.90241 23.7413 6.25439 23.3039 5.91952 22.86C5.68301 22.5465 5.61825 22.2532 5.67327 21.9576C5.79996 21.2671 6.74187 20.6623 7.65228 20.6623C7.85182 20.6623 8.05426 20.7066 8.24873 20.7889C9.1993 21.2364 10.0525 21.463 10.8046 21.463C11.3186 21.463 11.7469 21.3518 12.0493 21.1708L12.3042 21.0182L12.292 20.7214C12.2787 20.3975 12.2733 20.2738 12.2646 20.1015C12.2526 19.865 12.2393 19.6579 12.2232 19.4626C12.2202 19.4121 12.2161 19.3426 12.2091 19.2251C12.2034 19.1281 12.199 19.0528 12.1946 18.9793C12.1164 17.6474 12.0759 16.8157 12.0538 15.9381C11.9785 12.9575 12.1944 10.8249 12.8291 9.39237C14.2768 6.13645 16.5323 3.99297 19.3422 2.75303C21.2845 1.896 23.2526 1.5625 24.9631 1.5625H25.9685C27.6887 1.5625 29.6618 1.89569 31.6138 2.75335C34.4359 3.9933 36.7115 6.13785 38.1899 9.39642C38.6812 10.4889 38.9293 12.0272 38.9801 14.0115C39.0183 15.5026 38.9644 16.7955 38.7941 19.4548L38.7786 19.5967Z" fill="#FFFC00" stroke="#E8E8EA"/>
</svg>
