<svg width="30" height="30" viewBox="0 0 30 30" fill="none" xmlns="http://www.w3.org/2000/svg">
<path d="M19.375 9.53125C19.375 8.49525 18.9634 7.50168 18.2309 6.76911C17.4983 6.03655 16.5048 5.625 15.4688 5.625H6.40625C5.37025 5.625 4.37668 6.03655 3.64411 6.76911C2.91155 7.50168 2.5 8.49525 2.5 9.53125V20.4688C2.5 21.5048 2.91155 22.4983 3.64411 23.2309C4.37668 23.9634 5.37025 24.375 6.40625 24.375H15.4688C16.5048 24.375 17.4983 23.9634 18.2309 23.2309C18.9634 22.4983 19.375 21.5048 19.375 20.4688V9.53125ZM20.625 18.4575L24.9756 21.855C26.0019 22.6562 27.5 21.925 27.5 20.6238V9.37688C27.5 8.075 26.0019 7.34438 24.9756 8.14563L20.625 11.5425V18.4569V18.4575Z" fill="#8D8B95"/>
</svg>
