<svg width="130" height="130" viewBox="0 0 130 130" fill="none" xmlns="http://www.w3.org/2000/svg">
<path d="M65 121.875C49.9158 121.875 35.4494 115.883 24.7833 105.217C14.1172 94.5506 8.125 80.0842 8.125 65C8.125 49.9158 14.1172 35.4494 24.7833 24.7833C35.4494 14.1172 49.9158 8.125 65 8.125C80.0842 8.125 94.5506 14.1172 105.217 24.7833C115.883 35.4494 121.875 49.9158 121.875 65C121.875 80.0842 115.883 94.5506 105.217 105.217C94.5506 115.883 80.0842 121.875 65 121.875ZM65 130C82.2391 130 98.7721 123.152 110.962 110.962C123.152 98.7721 130 82.2391 130 65C130 47.7609 123.152 31.2279 110.962 19.0381C98.7721 6.8482 82.2391 0 65 0C47.7609 0 31.2279 6.8482 19.0381 19.0381C6.8482 31.2279 0 47.7609 0 65C0 82.2391 6.8482 98.7721 19.0381 110.962C31.2279 123.152 47.7609 130 65 130Z" fill="white"/>
</svg>
